<svg xmlns="http://www.w3.org/2000/svg" viewBox="0 0 125.33 100.58"><defs><style>.cls-1{fill:#ff405f;}.cls-2{fill:#e5e5e5;}.cls-3{fill:#fff;}.cls-4{fill:#ff88a4;}</style></defs><title>raket</title><g id="Lager_2" data-name="Lager 2"><g id="Lager_1-2" data-name="Lager 1"><path class="cls-1" d="M.55,20.22C10.18,11.34,41.46-13.57,68,9.61a1.71,1.71,0,0,1-.28,2.79c-7.82,4.24-39.49,14.73-46.1,16.9a1.68,1.68,0,0,1-1.82-.51c-1.41-1.67-5.8-5.12-18.17-5.61A1.7,1.7,0,0,1,.55,20.22Z"/><path class="cls-1" d="M50.61,77.69s4.49,6.25-4.25,20.11a1.8,1.8,0,0,0,1.85,2.74c13.21-2.59,52.05-14.47,46.38-51"/><polygon class="cls-1" points="25.89 41.91 5.89 46.48 25.35 84.59 40.52 69.02 25.89 41.91"/><path class="cls-2" d="M12,33.57s70.59-44.65,113.31-25c0,0-3.08,43-85,78.81Z"/><path class="cls-3" d="M11.57,33.29C17,43.58,31.48,70.93,31.48,70.93c73-25,87.37-47.93,93.2-62.66C87.48-9.07,28.91,23.42,11.57,33.29Z"/><circle class="cls-4" cx="75.48" cy="33.93" r="10"/><path class="cls-1" d="M72,26.93a11.46,11.46,0,0,0-4.39.87A10,10,0,0,0,83.34,40.09,11.42,11.42,0,0,0,72,26.93Z"/></g></g></svg>